<?xml version="1.0" encoding="UTF-8" standalone="no"?>
<!-- Created with Inkscape (http://www.inkscape.org/) -->

<svg
   width="24.478287mm"
   height="20.515221mm"
   viewBox="0 0 24.478287 20.515221"
   version="1.1"
   id="svg1"
   inkscape:version="1.3 (0e150ed6c4, 2023-07-21)"
   xml:space="preserve"
   sodipodi:docname="style guide.svg"
   xmlns:inkscape="http://www.inkscape.org/namespaces/inkscape"
   xmlns:sodipodi="http://sodipodi.sourceforge.net/DTD/sodipodi-0.dtd"
   xmlns="http://www.w3.org/2000/svg"
   xmlns:svg="http://www.w3.org/2000/svg"
   xmlns:rdf="http://www.w3.org/1999/02/22-rdf-syntax-ns#"
   xmlns:cc="http://creativecommons.org/ns#"><sodipodi:namedview
     id="namedview1"
     pagecolor="#ffffff"
     bordercolor="#000000"
     borderopacity="0.25"
     inkscape:showpageshadow="2"
     inkscape:pageopacity="0.0"
     inkscape:pagecheckerboard="0"
     inkscape:deskcolor="#d1d1d1"
     inkscape:document-units="mm"
     inkscape:zoom="0.61311633"
     inkscape:cx="3687.7178"
     inkscape:cy="203.06097"
     inkscape:window-width="1920"
     inkscape:window-height="1001"
     inkscape:window-x="-9"
     inkscape:window-y="-9"
     inkscape:window-maximized="1"
     inkscape:current-layer="g5"
     showguides="false" /><defs
     id="defs1" /><g
     inkscape:groupmode="layer"
     id="layer2"
     inkscape:label="Assets"
     transform="translate(-655.10835,-54.409075)"><g
       id="g50"
       transform="translate(341.31248)"><g
         id="g265"
         transform="translate(0,82.423866)"><path
           d="m 328.80954,-20.582368 -14.71962,9.222686 c -0.13649,0.07836 -0.23635,0.207009 -0.27621,0.35998 -0.0384,0.152128 -0.0143,0.313525 0.0673,0.448484 l 1.81025,2.9592564 c 0.0273,0.043341 0.0704,0.074896 0.12014,0.086479 0.0505,0.01332 0.10357,0.00359 0.1469,-0.023727 l 13.93491,-10.0170224 c 1.16865,-0.729222 3.63458,-0.412262 2.78545,1.910489 l 1.61454,2.654659 3.98092,-2.410966 -1.61535,-2.652273 -0.72295,-0.291406 c -0.64227,-0.254976 -1.03721,-0.904561 -0.96888,-1.591537 l 0.0761,-0.772101 -2.22201,-3.64858 c -1.43121,-2.351727 -4.48028,-4.444257 -7.82045,-3.383592 4.01336,1.611361 5.75662,5.990159 3.80889,7.149193 z"
           id="path1-9-8"
           style="stroke-width:0.317732"
           sodipodi:nodetypes="cccccccccccccccccsc" /></g></g></g><metadata
     id="metadata1"><rdf:RDF><cc:Work
         rdf:about="" /></rdf:RDF></metadata></svg>
