<?xml version="1.0" encoding="UTF-8" standalone="no"?>
<!-- Created with Inkscape (http://www.inkscape.org/) -->

<svg
   width="61.002476mm"
   height="22.387524mm"
   viewBox="0 0 61.002476 22.387524"
   version="1.1"
   id="svg1"
   inkscape:version="1.3 (0e150ed6c4, 2023-07-21)"
   xml:space="preserve"
   sodipodi:docname="colors.svg"
   xmlns:inkscape="http://www.inkscape.org/namespaces/inkscape"
   xmlns:sodipodi="http://sodipodi.sourceforge.net/DTD/sodipodi-0.dtd"
   xmlns="http://www.w3.org/2000/svg"
   xmlns:svg="http://www.w3.org/2000/svg"
   xmlns:rdf="http://www.w3.org/1999/02/22-rdf-syntax-ns#"
   xmlns:cc="http://creativecommons.org/ns#"><sodipodi:namedview
     id="namedview1"
     pagecolor="#ffffff"
     bordercolor="#000000"
     borderopacity="0.25"
     inkscape:showpageshadow="2"
     inkscape:pageopacity="0.0"
     inkscape:pagecheckerboard="0"
     inkscape:deskcolor="#d1d1d1"
     inkscape:document-units="mm"
     inkscape:zoom="2.2764579"
     inkscape:cx="1385.4858"
     inkscape:cy="433.34867"
     inkscape:window-width="1920"
     inkscape:window-height="1001"
     inkscape:window-x="-9"
     inkscape:window-y="-9"
     inkscape:window-maximized="1"
     inkscape:current-layer="layer2" /><defs
     id="defs1" /><g
     inkscape:groupmode="layer"
     id="layer2"
     inkscape:label="Assets"
     transform="translate(-403.56733,-113.23074)"><g
       id="g12"
       transform="translate(23.515778,21.861785)"
       inkscape:export-filename="StatBlocksmithLogo.svg"
       inkscape:export-xdpi="96"
       inkscape:export-ydpi="96"><text
         x="386.54794"
         y="113.36446"
         style="font-style:normal;font-variant:normal;font-weight:normal;font-stretch:normal;font-size:10.5948px;line-height:1.3;font-family:Vinque;-inkscape-font-specification:Vinque;letter-spacing:0.0646894px;word-spacing:0.0388136px;fill:#000000;stroke-width:1.63099"
         id="text11"><tspan
           x="386.54794"
           y="113.36446"
           id="tspan11">Blocksmith</tspan></text><text
         x="382.26752"
         y="115.65157"
         style="font-style:normal;font-variant:normal;font-weight:normal;font-stretch:normal;font-size:10.5948px;line-height:1.3;font-family:Vinque;-inkscape-font-specification:Vinque;letter-spacing:0.0646894px;word-spacing:0.0388136px;fill:#000000;stroke-width:1.63099"
         id="text12"
         transform="rotate(-2.3384364)"><tspan
           x="382.26752"
           y="115.65157"
           id="tspan12">Stat</tspan></text><path
         d="m 386.41304,100.91735 53.93158,-2.03124 c 0.18577,-0.0052 0.36565,0.06287 0.50007,0.19233 0.1324,0.12958 0.20763,0.306984 0.20868,0.493161 l 6.6e-4,4.572479 c -0.0128,0.13714 -0.0729,0.20794 -0.11587,0.25029 -0.12782,0.10231 -0.32062,0.0911 -0.38111,0.0901 l -53.36409,0.15874 c -1.62652,-0.0141 -3.91486,1.82498 -1.62795,3.64108 l 0.0101,3.66892 -5.49562,0.0254 -0.008,-3.66701 0.54855,-0.73912 c 0.48973,-0.65267 0.48714,-1.55038 -0.005,-2.20016 l -0.55256,-0.73075 -0.0109,-5.044424 c -0.008,-3.250811 1.77327,-7.237747 5.79125,-8.228197 -3.04908,4.096657 -2.10596,9.581461 0.57018,9.548341 z"
         id="path12"
         style="stroke-width:0.375187"
         sodipodi:nodetypes="ccccccccccccccccccc" /></g></g><metadata
     id="metadata1"><rdf:RDF><cc:Work
         rdf:about="" /></rdf:RDF></metadata></svg>
